<?xml version="1.0" standalone="no"?>
<!DOCTYPE svg PUBLIC "-//W3C//DTD SVG 20010904//EN"
 "http://www.w3.org/TR/2001/REC-SVG-20010904/DTD/svg10.dtd">
<svg version="1.0" xmlns="http://www.w3.org/2000/svg"
 width="1080.000000pt" height="1080.000000pt" viewBox="0 0 1080.000000 1080.000000"
 preserveAspectRatio="xMidYMid meet">

<g transform="translate(0.000000,1080.000000) scale(0.100000,-0.100000)"
fill="#000000" stroke="none">
<path d="M6855 9887 c-17 -8 -45 -30 -62 -50 -63 -72 -67 -174 -10 -249 52
-68 79 -79 260 -99 302 -35 563 -99 817 -202 922 -371 1636 -1156 1970 -2167
104 -313 156 -569 190 -929 18 -196 20 -205 47 -240 33 -40 104 -81 143 -81
83 0 159 56 178 130 20 80 -16 437 -74 730 -144 730 -458 1384 -924 1924 -118
136 -361 372 -495 480 -406 325 -875 558 -1375 681 -270 66 -600 102 -665 72z"/>
<path d="M6846 9170 c-92 -28 -132 -144 -83 -240 31 -63 67 -80 189 -91 611
-55 1168 -325 1619 -786 225 -228 381 -447 525 -733 192 -383 299 -772 333
-1209 13 -155 28 -192 95 -222 53 -24 80 -24 131 1 64 31 80 68 77 175 -5 201
-57 527 -119 755 -322 1186 -1227 2081 -2328 2304 -188 38 -393 59 -439 46z"/>
<path d="M1012 4993 l3 -4158 4358 -3 4357 -2 0 2380 0 2380 -100 0 -100 0 0
-2275 0 -2275 -4155 0 -4155 0 0 3955 0 3955 2610 0 2610 0 0 100 0 100 -2715
0 -2715 0 2 -4157z"/>
<path d="M6805 8461 c-39 -16 -58 -49 -63 -108 -5 -64 15 -114 53 -131 13 -6
70 -16 127 -22 464 -49 869 -239 1212 -570 414 -399 663 -939 717 -1550 6 -74
17 -147 25 -161 29 -58 147 -66 193 -13 23 28 24 31 18 159 -24 510 -219 1043
-536 1465 -397 530 -969 861 -1606 930 -105 11 -113 11 -140 1z"/>
<path d="M6757 7836 c-12 -13 -17 -34 -17 -82 0 -89 12 -99 128 -107 543 -39
1060 -429 1306 -984 97 -219 166 -516 166 -716 0 -60 21 -77 92 -77 42 0 59 5
73 20 18 19 18 29 7 158 -56 640 -367 1191 -860 1523 -234 157 -523 258 -785
276 -80 5 -95 3 -110 -11z"/>
<path d="M1849 5625 c-15 -8 -32 -29 -38 -46 -8 -22 -11 -268 -11 -811 0 -859
-2 -835 60 -857 41 -14 755 -15 852 -1 176 26 292 111 349 257 19 49 23 82 27
217 7 247 -21 341 -131 442 l-59 55 20 22 c60 66 87 180 79 335 -11 206 -76
310 -236 374 -55 22 -66 23 -471 25 -350 2 -419 1 -441 -12z m871 -210 c63
-38 75 -72 75 -220 0 -150 -15 -195 -75 -230 -33 -19 -55 -20 -377 -23 l-343
-3 0 251 0 251 343 -3 c323 -3 344 -4 377 -23z m65 -705 c42 -21 55 -35 80
-85 29 -58 30 -65 30 -195 0 -79 -6 -152 -13 -177 -17 -56 -57 -102 -112 -127
-43 -20 -64 -21 -407 -24 l-363 -3 0 321 0 321 368 -3 368 -3 49 -25z"/>
<path d="M3200 5613 c-38 -32 -50 -59 -40 -94 4 -14 139 -233 299 -486 l291
-460 0 -296 c0 -172 4 -307 10 -322 15 -39 73 -60 123 -45 64 19 67 35 67 372
l0 293 295 463 c163 254 298 475 301 491 8 36 -9 67 -49 91 -42 26 -70 25
-104 -4 -15 -13 -143 -204 -283 -425 -140 -220 -257 -401 -260 -401 -3 0 -117
179 -255 398 -137 218 -262 409 -277 425 -35 35 -76 36 -118 0z"/>
<path d="M4623 5628 c-30 -15 -56 -72 -48 -107 3 -16 17 -39 31 -52 25 -24 27
-24 305 -27 l279 -3 2 -739 3 -740 28 -27 c22 -22 37 -28 73 -28 38 0 50 5 70
28 l24 28 0 739 0 739 286 3 286 3 24 28 c17 20 24 40 24 72 0 36 -5 47 -31
69 l-31 26 -651 -1 c-438 0 -659 -4 -674 -11z"/>
<path d="M6289 5625 c-15 -8 -32 -29 -38 -46 -8 -22 -11 -268 -11 -811 0 -859
-2 -835 60 -857 23 -8 186 -11 532 -11 567 0 559 -1 578 71 14 49 -7 105 -45
119 -16 6 -202 10 -476 10 l-449 0 0 290 0 290 290 0 c318 0 351 5 370 55 18
48 12 85 -19 116 l-29 29 -306 0 -306 0 0 280 0 280 445 0 c500 0 504 0 525
64 16 49 -1 101 -40 121 -42 22 -1041 22 -1081 0z"/>
<path d="M8041 5629 c-152 -26 -257 -114 -307 -259 -28 -80 -27 -320 0 -404
39 -118 113 -195 228 -236 58 -21 86 -23 378 -30 218 -5 326 -11 350 -20 55
-21 89 -48 113 -93 20 -38 22 -56 22 -187 0 -122 -3 -150 -19 -180 -29 -55
-55 -78 -110 -97 -44 -16 -89 -18 -346 -18 -259 0 -301 2 -347 18 -89 31 -123
88 -138 229 -8 75 -39 108 -102 108 -68 0 -93 -31 -93 -112 1 -180 80 -324
214 -387 97 -46 143 -51 469 -51 317 0 362 5 463 49 147 66 221 231 211 476
-7 185 -53 295 -155 370 -102 75 -222 94 -583 95 -168 0 -226 3 -260 15 -96
34 -123 97 -117 273 5 147 24 192 96 225 44 21 64 22 330 25 233 3 292 0 336
-12 85 -25 136 -98 136 -194 0 -44 24 -98 48 -111 34 -18 96 -13 120 9 31 30
37 65 24 153 -29 196 -144 316 -332 346 -78 13 -552 12 -629 0z"/>
</g>
</svg>
