<svg width="1000" height="329" viewBox="0 0 1000 329" fill="none" xmlns="http://www.w3.org/2000/svg">
<g clip-path="url(#clip0_1_2)">
<rect width="1000" height="329" fill="white"/>
<path d="M221.63 18.4867C218.093 24.2965 223.145 28.5907 235.775 29.8537C261.54 32.8849 291.095 52.8403 309.029 78.6055C318.628 93.0037 324.69 108.918 329.49 134.178C331.511 144.534 333.784 149.081 336.31 149.081C341.867 149.081 342.372 139.735 337.573 118.011C328.985 78.3529 302.714 43.9993 268.613 27.5803C249.921 18.4867 224.661 13.4347 221.63 18.4867Z" fill="black"/>
<path d="M221.63 43.2416C220.114 47.2832 224.913 49.8092 240.322 53.093C251.436 55.3664 269.624 65.4704 278.97 74.0588C291.6 86.1836 301.704 104.876 307.261 127.105C314.081 154.638 319.891 158.427 318.123 134.178C315.092 96.2876 286.8 58.6502 252.194 46.778C231.481 39.7052 223.398 38.9474 221.63 43.2416Z" fill="black"/>
<path d="M30.664 179.393V317.06H174.646H318.628V238.754C318.628 188.234 317.618 160.448 316.102 160.448C314.586 160.448 313.576 187.476 313.576 236.228V312.008H174.646H35.716V179.393V46.7779H122.863C179.193 46.7779 210.01 45.7675 210.01 44.2519C210.01 42.7363 178.435 41.7259 120.337 41.7259H30.664V179.393Z" fill="black"/>
<path d="M220.619 67.4912C221.124 69.0068 228.702 72.2906 237.038 74.564C263.814 81.8894 283.264 103.613 289.074 132.915C292.61 150.344 297.41 153.628 296.652 137.967C296.147 125.084 287.053 103.613 276.444 90.7304C266.592 78.6056 240.827 64.46 228.45 64.46C222.893 64.46 220.114 65.4704 220.619 67.4912Z" fill="black"/>
<path d="M418.91 71.2802C417.9 72.038 417.142 88.7096 417.142 107.907V142.766H438.613C456.8 142.766 460.842 142.008 465.136 137.714C471.198 131.652 471.956 113.464 466.652 106.139C464.126 102.603 463.873 99.824 465.894 94.5194C469.43 85.4258 465.136 75.3218 456.042 72.038C448.717 69.2594 421.436 68.5016 418.91 71.2802ZM458.821 84.668C459.579 87.194 459.074 91.9934 457.558 94.772C455.032 99.3188 452.759 100.077 440.381 99.3188L425.983 98.561L425.225 88.9622L424.467 79.616H440.886C454.779 79.616 457.558 80.3738 458.821 84.668ZM457.811 109.928C463.62 113.212 464.378 127.863 459.074 132.409C456.8 134.178 449.475 135.188 440.634 134.683L425.983 133.925L425.225 124.074C423.962 109.17 425.478 107.402 439.876 107.402C446.949 107.402 455.032 108.665 457.811 109.928Z" fill="black"/>
<path d="M566.176 83.405C566.176 87.9518 564.913 89.72 561.124 89.72C558.345 89.72 556.072 91.4882 556.072 93.509C556.072 95.5298 558.345 97.298 561.124 97.298C565.671 97.298 566.176 99.0662 566.176 114.98C566.176 129.378 567.186 133.672 571.228 137.714C577.29 143.776 588.91 144.534 588.91 138.977C588.91 136.956 586.889 135.188 584.363 135.188C576.533 135.188 573.754 129.631 573.754 113.212V97.298H581.332C586.384 97.298 588.91 96.035 588.91 93.509C588.91 90.983 586.384 89.72 581.332 89.72C575.017 89.72 573.754 88.7096 573.754 83.405C573.754 79.3634 572.238 77.09 569.965 77.09C567.692 77.09 566.176 79.3634 566.176 83.405Z" fill="black"/>
<path d="M220.114 86.9414C220.114 88.2044 223.903 90.2252 228.45 90.983C252.447 96.2876 272.907 119.779 273.16 142.008C273.16 146.555 274.423 150.344 275.686 150.344C283.517 150.344 274.676 120.032 262.298 104.371C252.194 91.7408 220.114 78.6056 220.114 86.9414Z" fill="black"/>
<path d="M489.891 105.381C489.133 120.537 490.901 136.451 493.932 139.482C496.964 142.513 520.203 143.271 525.507 140.493C530.559 137.714 530.812 138.219 530.812 146.555V155.396H514.646C500.5 155.396 497.974 154.638 496.711 150.344C494.438 143.524 490.396 144.029 490.396 150.849C490.396 162.216 493.932 164.237 514.14 164.237C526.265 164.237 534.348 162.974 536.369 160.953C538.643 158.68 539.653 148.323 539.653 124.326C539.653 96.2875 539.148 90.9829 535.864 90.9829C532.833 90.9829 531.822 95.0245 531.317 108.665C530.307 129.126 526.518 135.188 514.14 135.188C498.984 135.188 497.974 133.672 497.974 114.98C497.974 105.381 497.216 96.0349 496.458 93.7615C493.427 85.6783 490.901 90.2251 489.891 105.381Z" fill="black"/>
<path d="M611.391 94.5193C606.087 98.8135 605.329 101.34 605.582 116.496C605.582 130.894 606.592 134.178 611.391 137.967C624.527 148.576 658.375 141.25 653.576 128.873C652.06 124.579 651.555 124.579 646.755 129.631C643.219 133.672 638.672 135.188 631.094 135.188C619.475 135.188 614.17 131.904 614.17 124.579C614.17 120.537 616.696 120.032 634.378 120.032H654.586V108.918C654.586 100.077 653.323 96.7927 649.029 93.7615C640.693 87.9517 618.717 88.4569 611.391 94.5193ZM645.745 104.876C645.745 110.686 644.735 111.191 631.094 111.949C619.727 112.454 616.191 111.949 615.18 108.665C612.149 101.34 619.222 97.0453 632.862 97.8031C644.735 98.5609 645.745 99.0661 645.745 104.876Z" fill="black"/>
<path d="M679.341 92.4986C673.278 96.035 673.278 110.433 679.341 115.738C682.625 118.769 688.687 120.032 698.286 120.032C713.189 120.032 716.473 122.053 713.947 130.136C712.684 134.43 710.158 135.188 699.549 135.188C690.96 135.188 684.898 133.672 681.867 130.894C674.541 124.326 670.247 130.641 677.067 137.461C681.362 141.756 685.403 142.766 697.528 142.766C714.452 142.766 722.788 137.461 722.788 126.852C722.788 115.99 717.736 112.707 700.054 111.949C684.14 111.191 683.635 110.938 682.877 104.118C682.119 97.298 682.119 97.298 696.518 97.298C707.379 97.298 711.674 98.3084 714.2 101.592C717.231 105.886 717.483 105.886 718.999 101.592C722.283 93.509 715.715 89.72 699.044 89.72C690.708 89.72 681.614 90.983 679.341 92.4986Z" fill="black"/>
<path d="M55.924 186.971V216.02H71.8378C97.0978 216.02 98.1082 214.252 95.8348 178.888C94.3192 160.701 91.288 157.922 72.0904 157.922H55.924V186.971ZM85.7308 165.247C87.7516 166.258 88.762 170.047 88.2568 173.331C87.499 178.635 85.9834 179.393 74.3638 180.151C61.2286 180.908 60.976 180.908 60.976 173.583C60.976 169.542 61.7338 165.5 62.7442 164.742C65.0176 162.216 81.6892 162.721 85.7308 165.247ZM90.025 198.338V207.179L75.6268 207.937L60.976 208.694V198.338V187.981L75.6268 188.739L90.025 189.497V198.338Z" fill="black"/>
<path d="M101.392 160.448C101.392 161.711 105.939 170.047 111.496 178.635C119.074 190.76 121.6 197.075 121.6 205.158C121.6 211.22 122.863 216.02 124.126 216.02C125.642 216.02 126.652 210.968 126.652 204.653C126.652 195.812 128.925 189.749 136.251 178.13C145.597 162.974 145.597 162.974 156.964 163.479L168.331 164.237L169.089 190.002C169.341 204.4 170.857 216.02 172.12 216.02C173.383 216.02 174.899 204.4 175.151 190.002L175.909 164.237L185.508 163.479C190.56 162.974 194.854 161.458 194.854 160.195C194.854 158.68 184.245 157.922 168.331 158.174L142.061 158.427L133.725 171.562C129.431 178.635 125.389 184.95 124.884 185.455C123.621 186.971 117.306 178.382 111.496 167.268C106.697 158.427 101.392 154.891 101.392 160.448Z" fill="black"/>
<path d="M204.958 186.971V216.273L223.398 215.515C245.627 214.504 247.395 209.958 225.924 208.947L210.01 208.189V198.338C210.01 188.234 210.01 188.234 220.114 188.234C225.671 188.234 230.218 186.971 230.218 185.708C230.218 184.192 225.671 183.182 220.114 183.182H210.01V173.078V162.974H225.166C233.502 162.974 240.322 161.964 240.322 160.448C240.322 158.932 232.744 157.922 222.64 157.922H204.958V186.971Z" fill="black"/>
<path d="M256.994 161.964C252.447 166.51 251.689 176.109 255.478 183.435C257.751 187.224 261.035 188.234 271.897 188.234C283.011 188.234 286.043 189.244 288.316 193.286C289.832 196.317 290.337 200.864 289.579 203.39C288.316 207.684 285.79 208.442 273.918 208.442C262.298 208.442 259.772 207.684 258.762 203.39C256.994 197.075 252.952 196.822 252.952 202.632C252.952 211.221 257.499 214.252 271.392 215.515C283.011 216.525 286.043 215.767 290.589 211.221C293.368 208.442 295.894 202.632 295.894 198.843C295.894 188.487 288.821 183.182 275.433 183.182C263.309 183.182 258.004 179.898 258.004 172.573C258.004 167.268 265.329 162.974 274.928 162.974C283.264 162.974 286.8 164.995 289.326 171.562C290.589 175.099 291.852 175.604 293.873 173.583C295.894 171.562 295.641 169.036 292.358 164.49C288.821 158.68 286.295 157.922 274.423 157.922C265.582 157.922 259.52 159.185 256.994 161.964Z" fill="black"/>
<path d="M419.921 227.64C415.374 233.449 414.616 237.996 414.616 256.941C414.616 277.402 415.121 279.928 420.931 285.485C426.236 291.042 429.267 291.8 444.928 291.8C464.126 291.8 472.714 287.001 472.714 276.644C472.714 269.571 466.399 270.329 463.115 277.907C460.589 283.717 458.821 284.222 445.181 284.222C425.73 284.222 422.194 279.928 422.194 256.436C422.194 232.944 425.73 228.65 445.181 228.65C458.821 228.65 460.589 229.155 463.115 234.965C466.399 242.543 472.714 243.301 472.714 236.228C472.714 225.619 464.126 221.072 443.918 221.072C426.488 221.072 424.72 221.577 419.921 227.64Z" fill="black"/>
<path d="M495.448 243.806C491.406 247.848 490.396 252.142 490.396 265.277C490.396 287.253 494.69 291.8 515.151 291.8C535.359 291.8 539.653 287.001 539.653 264.772C539.653 250.626 538.895 247.848 533.591 243.553C525.255 236.733 502.521 236.733 495.448 243.806ZM526.013 248.858C529.802 251.131 530.812 254.415 530.812 266.287C530.812 282.706 529.549 284.222 513.383 284.222C500.753 284.222 497.974 280.686 497.974 264.772C497.974 254.92 498.984 250.879 502.521 249.111C508.078 245.827 519.698 245.574 526.013 248.858Z" fill="black"/>
<path d="M561.124 265.277C561.124 287.253 561.882 291.8 564.913 291.8C567.944 291.8 568.702 288.011 568.702 273.108C568.702 252.647 571.986 246.332 582.342 246.332C592.699 246.332 596.488 253.657 596.488 273.613C596.488 286.495 597.498 291.8 599.772 291.8C601.793 291.8 603.056 285.738 603.561 272.097C604.066 251.889 607.097 246.332 617.201 246.332C627.053 246.332 631.852 255.173 631.852 274.371C631.852 287.506 632.61 292.053 635.136 291.295C638.672 290.032 640.693 267.298 638.167 254.668C637.409 250.121 634.883 244.816 632.862 242.543C628.316 238.249 608.865 237.491 604.824 241.533C602.803 243.553 600.53 243.553 596.993 241.533C590.426 237.996 579.816 237.996 573.501 241.28C570.218 243.048 568.702 243.048 568.702 241.28C568.702 240.017 566.934 238.754 564.913 238.754C561.882 238.754 561.124 243.301 561.124 265.277Z" fill="black"/>
<path d="M662.164 276.897C662.164 306.198 662.922 314.787 665.448 314.029C666.963 313.271 668.732 308.219 669.237 302.409L669.995 291.8H684.393C693.234 291.8 701.064 290.284 704.348 288.011C714.705 280.686 714.957 253.657 704.853 243.553C699.549 238.249 682.877 236.986 674.794 241.28C671.51 243.048 669.489 243.048 668.479 241.28C663.68 233.449 662.164 242.038 662.164 276.897ZM697.781 248.858C701.57 251.131 702.58 254.415 702.58 264.772C702.58 272.097 701.317 279.423 699.549 281.191C697.781 282.959 690.455 284.222 683.13 284.222H669.742V267.803C669.742 252.9 670.247 250.879 675.552 248.858C683.13 245.827 691.971 245.827 697.781 248.858Z" fill="black"/>
<path d="M735.923 242.796C730.113 246.837 728.345 253.91 732.892 253.91C734.407 253.91 738.449 252.142 741.985 249.868C749.058 245.069 765.225 246.332 768.508 251.889C770.024 254.415 766.74 255.426 754.363 256.689C734.155 258.457 730.366 261.488 730.366 275.634C730.366 283.969 731.629 287.253 735.165 289.274C741.985 292.81 761.436 292.558 765.477 288.516C768.256 285.99 769.014 285.99 770.024 288.516C770.782 290.284 772.803 291.8 775.076 291.8C778.36 291.8 778.612 288.011 777.855 268.813C777.349 249.616 776.339 245.322 772.297 242.29C765.477 237.491 742.996 237.744 735.923 242.796ZM770.782 271.339C770.782 280.18 763.709 284.475 750.826 283.717C741.985 283.212 738.954 281.949 738.449 278.412C736.428 268.813 739.712 266.54 755.626 266.54C769.014 266.54 770.782 267.045 770.782 271.339Z" fill="black"/>
<path d="M801.094 265.277C801.094 286.748 801.852 291.8 804.883 291.8C807.662 291.8 808.672 287.253 809.177 271.087L809.935 250.374L819.534 248.1C826.101 246.585 831.406 246.585 835.448 248.605C841.005 251.131 841.51 252.647 841.51 271.592C841.51 287.758 842.268 291.8 845.299 291.8C848.33 291.8 849.088 287.758 849.088 270.329C849.088 252.142 848.33 248.1 844.036 243.806C838.479 238.249 821.807 236.986 813.471 241.28C810.188 243.048 808.672 243.048 808.672 241.28C808.672 240.017 806.904 238.754 804.883 238.754C801.852 238.754 801.094 243.301 801.094 265.277Z" fill="black"/>
<path d="M871.822 260.983C871.822 288.264 874.348 291.8 894.051 291.8C901.124 291.8 907.691 290.537 908.449 289.274C911.48 284.222 914.764 286.748 914.764 294.326C914.764 302.662 908.954 306.956 897.84 306.956C886.473 306.956 879.905 304.177 878.642 299.125C876.621 291.547 871.822 293.568 871.822 301.904C871.822 311.755 877.632 314.534 898.092 314.534C921.332 314.534 922.595 312.008 921.837 271.592C921.332 249.363 920.069 240.017 918.048 239.259C915.522 238.501 914.764 243.301 914.764 257.194C914.764 278.917 911.228 284.222 896.577 284.222C879.905 284.222 879.4 283.464 879.4 259.972C879.4 242.796 878.642 238.754 875.611 238.754C872.58 238.754 871.822 242.796 871.822 260.983Z" fill="black"/>
</g>
<defs>
<clipPath id="clip0_1_2">
<rect width="1000" height="329" fill="white"/>
</clipPath>
</defs>
</svg>
