<?xml version="1.0" encoding="UTF-8"?>
<svg version="1.1" xmlns="http://www.w3.org/2000/svg" width="2734" height="2357">
<path d="M0 0 C28.38 0 56.76 0 86 0 C86 28.38 86 56.76 86 86 C94.46180908 85.85860596 102.92361816 85.71721191 111.6418457 85.5715332 C138.81403052 85.1368441 165.98623374 84.83728919 193.16100087 84.6212361 C197.39225479 84.58747291 201.62349816 84.55252564 205.85473633 84.5168457 C207.11811465 84.50622213 207.11811465 84.50622213 208.40701576 84.49538394 C221.98954067 84.3783559 235.56893428 84.16574711 249.14961038 83.91687451 C263.11762801 83.66306667 277.08402309 83.51414377 291.05425137 83.45961064 C298.88901306 83.42609607 306.71722882 83.34583574 314.54964638 83.14528847 C367.98556505 81.81602833 367.98556505 81.81602833 381.75213093 93.69564861 C386.86082636 98.56878773 391.00394176 104.07366654 394.87389088 109.95486736 C397.73782063 114.05674805 401.11593171 116.91501162 405 120 C406.90821279 121.76926848 408.73210991 123.60437074 410.57397461 125.44458008 C411.31946564 126.18744263 411.31946564 126.18744263 412.08001709 126.9453125 C413.68995007 128.55091347 415.29627981 130.16006087 416.90234375 131.76953125 C418.03180112 132.89831373 419.16140679 134.02694784 420.29115295 135.15544128 C422.64177288 137.50459656 424.99059853 139.85552695 427.33813477 142.20776367 C430.34984833 145.22521344 433.36608298 148.23809799 436.38364315 151.24969959 C438.70937067 153.57182171 441.03272141 155.89631005 443.35534859 158.22153282 C444.46741884 159.33427036 445.58023298 160.44626497 446.69379997 161.55750465 C448.24222409 163.10339836 449.78742241 164.65244491 451.33178711 166.20239258 C452.21144638 167.08284744 453.09110565 167.96330231 453.99742126 168.87043762 C456.70298227 171.74755842 457.13373113 173.38606588 457.36327267 177.22256088 C457.41829982 178.11402368 457.47332697 179.00548648 457.53002161 179.92396331 C457.58577106 180.91003137 457.64152052 181.89609943 457.69895935 182.91204834 C457.76049244 183.95563767 457.82202552 184.99922699 457.88542324 186.07444024 C458.0896142 189.59844064 458.28487267 193.1228524 458.47827148 196.64746094 C458.54693357 197.87965237 458.61559566 199.1118438 458.68633842 200.38137436 C460.00063452 224.2307091 460.84174498 248.08854283 461.47533574 271.96502946 C461.58015744 275.90451276 461.68869886 279.84388539 461.79956055 283.78320312 C461.82155374 284.56697941 461.84354694 285.3507557 461.86620659 286.15828279 C462.18147051 297.10966947 462.70312554 308.0334442 463.39703216 318.96712212 C471.03072601 439.39936068 471.03072601 439.39936068 430.59026086 485.71996695 C395.06106188 524.55615178 353.95254001 537.93741447 303.02734375 540.38671875 C283.55068245 541.20009823 264.08469167 540.72454129 244.61149498 540.07805125 C232.67687342 539.68888292 220.8143863 539.75344945 208.88061523 540.13647461 C147.76464108 542.03004041 78.68779127 542.07819489 31.21433735 497.51977539 C-9.75555284 456.97808208 -7.86611145 395.98671167 -8.28202197 342.25515166 C-8.45562259 308.19135961 -7.39463469 274.16355227 -6.1223982 240.12806743 C-5.4432827 221.76343227 -4.98299362 203.40248004 -4.66918945 185.02807617 C-4.64685796 183.72418163 -4.62452646 182.42028709 -4.60151825 181.0768806 C-4.4905457 174.53200385 -4.38314121 167.98707433 -4.27750647 161.44210947 C-3.40398066 107.60308624 -1.84200774 53.8162983 0 0 Z M86 173 C86 262.1 86 351.2 86 443 C179.72 443 273.44 443 370 443 C370 353.9 370 264.8 370 173 C276.28 173 182.56 173 86 173 Z " fill="#FFFFFF" transform="translate(228,936)"/>
<path d="M0 0 C15.85356994 0.68827996 31.70275121 1.15324348 47.56796074 1.47029662 C49.25905936 1.50418795 49.25905936 1.50418795 50.98432158 1.53876396 C56.6438587 1.65105029 62.30345847 1.75971636 67.96310019 1.86658764 C114.44971866 2.7490279 160.87402173 4.32829022 207.33358574 6.19441772 C207.33358574 34.90441772 207.33358574 63.61441772 207.33358574 93.19441772 C80.61358574 93.19441772 -46.10641426 93.19441772 -176.66641426 93.19441772 C-176.66641426 123.55441772 -176.66641426 153.91441772 -176.66641426 185.19441772 C-82.94641426 185.19441772 10.77358574 185.19441772 107.33358574 185.19441772 C107.33358574 213.57441772 107.33358574 241.95441772 107.33358574 271.19441772 C13.61358574 271.19441772 -80.10641426 271.19441772 -176.66641426 271.19441772 C-176.66641426 301.55441772 -176.66641426 331.91441772 -176.66641426 363.19441772 C-49.94641426 363.19441772 76.77358574 363.19441772 207.33358574 363.19441772 C207.33358574 391.57441772 207.33358574 419.95441772 207.33358574 449.19441772 C159.74750652 451.10579361 112.19875923 452.68694377 64.58503001 453.58603605 C58.91260651 453.69354328 53.24026376 453.80486011 47.56796074 453.91853881 C46.43913275 453.94109751 45.31030476 453.9636562 44.14726986 453.9868985 C28.30574758 454.31137127 12.48277414 454.84098528 -3.34666038 455.53571531 C-178.47960822 463.21211187 -178.47960822 463.21211187 -224.2768513 422.37802255 C-261.67079333 387.00799643 -274.00586366 339.74116079 -275.41493034 289.88913894 C-275.7698905 274.38463168 -275.34012293 258.90088972 -274.80025379 243.40625961 C-274.41513736 232.15843148 -274.48647506 220.98824967 -274.87832832 209.741781 C-276.88776274 150.09239801 -275.43793413 87.52552758 -232.36172676 41.06160522 C-175.0815528 -18.8307929 -74.97716299 -3.29063472 0 0 Z " fill="#FFFFFF" transform="translate(1968.6664142608643,1015.8055822849274)"/>
<path d="M0 0 C47.24618436 -0.02286427 94.49236815 -0.04049715 141.73855695 -0.05106533 C147.31016102 -0.05231611 152.88176508 -0.05361043 158.45336914 -0.05493164 C160.1172528 -0.05532511 160.1172528 -0.05532511 161.81475026 -0.05572652 C179.80071972 -0.06008368 197.786686 -0.06797147 215.77265357 -0.0771528 C234.21333056 -0.08648807 252.65400588 -0.09205534 271.09468514 -0.09408849 C282.48329137 -0.09546399 293.87188862 -0.09981598 305.26049209 -0.10791647 C313.05882613 -0.11318237 320.85715548 -0.11480465 328.65549117 -0.11350138 C333.16183918 -0.11285775 337.66817143 -0.11387825 342.17451668 -0.11920547 C346.29300199 -0.12403893 350.41146081 -0.12433901 354.52994729 -0.12089889 C356.02659098 -0.12047315 357.52323626 -0.12176934 359.01987677 -0.12488318 C361.04088328 -0.12884636 363.06189967 -0.12615671 365.08290768 -0.12304783 C366.2095379 -0.12342755 367.33616812 -0.12380727 368.49693865 -0.1241985 C371 0 371 0 372 1 C372.10043271 3.64200061 372.1361685 6.2578859 372.12939453 8.90039062 C372.13202301 10.14178047 372.13202301 10.14178047 372.13470459 11.4082489 C372.13912393 14.15760362 372.13618483 16.90689457 372.1328125 19.65625 C372.13348552 21.55814629 372.13445552 23.46004249 372.13571167 25.36193848 C372.13718875 29.35344255 372.13503375 33.34492429 372.13037109 37.33642578 C372.1246738 42.46490507 372.12795275 47.59333202 372.13394356 52.72180939 C372.13754889 56.65074054 372.13641072 60.57965918 372.13381577 64.5085907 C372.13314642 66.40012112 372.13397519 68.29165265 372.13629532 70.18318176 C372.13882138 72.82202177 372.13498191 75.46077581 372.12939453 78.09960938 C372.13141876 78.88925583 372.13344299 79.67890228 372.13552856 80.49247742 C372.11426251 85.88573749 372.11426251 85.88573749 371 87 C369.03484419 87.09775878 367.0661108 87.12371278 365.09852505 87.12304783 C363.80767764 87.12503888 362.51683022 87.12702993 361.18686622 87.12908131 C359.73561551 87.12622771 358.28436498 87.1232821 356.83311462 87.12025452 C355.30607525 87.12069008 353.77903595 87.12156472 352.25199705 87.12284368 C348.03566464 87.12509149 343.81935738 87.12106348 339.60302818 87.11606562 C335.0638077 87.11176538 330.52458876 87.11320724 325.98536682 87.1139679 C318.11416726 87.1144934 310.24297597 87.11134382 302.37177849 87.10573006 C290.99121076 87.09761866 279.61064704 87.09500021 268.23007674 87.09374207 C249.76788418 87.09155098 231.30569602 87.08488936 212.84350586 87.07543945 C194.90437848 87.0662668 176.9652523 87.05918525 159.02612305 87.05493164 C157.92119741 87.05466892 156.81627177 87.05440619 155.67786353 87.05413551 C150.13502781 87.05283051 144.59219208 87.0515668 139.04935634 87.05032361 C93.03290031 87.03994922 47.01645243 87.02150997 1 87 C1 117.36 1 147.72 1 179 C9.18312988 178.54963379 17.36625977 178.09926758 25.79736328 177.63525391 C52.36615159 176.23757537 78.93417167 175.29133948 105.5303287 174.60838167 C109.70064952 174.50089562 113.87085976 174.38957684 118.04101562 174.27587891 C118.87078214 174.25332021 119.70054865 174.23076151 120.5554596 174.20751922 C132.15478664 173.8842514 143.72842827 173.35619702 155.31104875 172.65879843 C277.78827569 165.28854037 277.78827569 165.28854037 318.78400932 200.93509183 C325.37899883 206.78867245 331.51560175 213.05641071 337.5703125 219.4609375 C338.4593812 220.39077218 339.34844991 221.32060685 340.26446009 222.27861834 C364.68978833 248.058494 383.36974448 277.25753772 382.69710732 313.87978268 C381.09803352 348.41387747 363.13670186 377.68393511 340.2890625 402.5390625 C339.419776 403.49118386 338.55048949 404.44330522 337.65486097 405.42427874 C305.17997181 440.33992551 270.38833811 449.30243625 223.64531362 451.04846224 C187.13812768 452.1963654 150.59145503 450.85320952 114.12355328 449.19433236 C98.8220125 448.50593574 83.52503372 448.04106686 68.21142578 447.72412109 C66.57857358 447.69022976 66.57857358 447.69022976 64.91273446 447.65565376 C59.44799229 447.54336541 53.9831852 447.43469984 48.51833463 447.32783008 C3.64798455 446.44571997 -41.15770761 444.86673132 -86 443 C-86 414.62 -86 386.24 -86 357 C36.43 357 158.86 357 285 357 C285 326.64 285 296.28 285 265 C276.81687012 265.45036621 268.63374023 265.90073242 260.20263672 266.36474609 C233.63384841 267.76242463 207.06582833 268.70866052 180.4696713 269.39161833 C176.29935048 269.49910438 172.12914024 269.61042316 167.95898438 269.72412109 C167.12921786 269.74667979 166.29945135 269.76923849 165.4445404 269.79248078 C153.84521121 270.11574866 142.27156838 270.6438055 130.68894596 271.3412068 C7.45981802 278.75646322 7.45981802 278.75646322 -34.53575897 241.90193748 C-40.58969821 236.4816408 -46.25579338 230.70473715 -51.87890625 224.84375 C-52.77801932 223.92383255 -53.67713239 223.00391509 -54.60349131 222.05612135 C-80.02650544 195.87222688 -92.08888859 170.81980955 -91.98507786 134.03512383 C-91.13632124 92.17788756 -91.13632124 92.17788756 -82.51220703 82.13452148 C-81.3687407 81.059906 -80.20131255 80.00953546 -79 79 C-78.29496338 78.25226318 -77.58992676 77.50452637 -76.86352539 76.73413086 C-76.28078857 76.15026611 -75.69805176 75.56640137 -75.09765625 74.96484375 C-74.43443359 74.30033203 -73.77121094 73.63582031 -73.08789062 72.95117188 C-72.41951172 72.28666016 -71.75113281 71.62214844 -71.0625 70.9375 C-70.06573242 69.93493164 -70.06573242 69.93493164 -69.04882812 68.91210938 C-68.38431641 68.24888672 -67.71980469 67.58566406 -67.03515625 66.90234375 C-66.4512915 66.31960693 -65.86742676 65.73687012 -65.26586914 65.13647461 C-63.39359655 63.37111986 -61.48797254 61.70316588 -59.53271484 60.03271484 C-53.56198867 54.83223562 -48.03154419 49.17552843 -42.44140625 43.57421875 C-41.2446882 42.37817547 -40.04782184 41.18228057 -38.85081482 39.98652649 C-36.35895937 37.49613645 -33.86889957 35.00396881 -31.38012695 32.51049805 C-28.18681023 29.31144734 -24.98897432 26.11695746 -21.78981113 22.92375469 C-19.32511436 20.46266317 -16.86279391 17.9992053 -14.40119743 15.5350132 C-13.22214118 14.3552895 -12.04234063 13.17630919 -10.8617878 11.99808311 C-9.21996561 10.35879085 -7.58136639 8.71634447 -5.94360352 7.07299805 C-5.01064957 6.1392485 -4.07769562 5.20549896 -3.11647034 4.24345398 C-0.9741461 2.18868791 -0.9741461 2.18868791 0 0 Z " fill="#FFFFFF" transform="translate(2292,1022)"/>
<path d="M0 0 C28.38 0 56.76 0 86 0 C86.33 58.74 86.66 117.48 87 178 C185.67 178.33 284.34 178.66 386 179 C386 119.93 386 60.86 386 0 C414.38 0 442.76 0 472 0 C473.8902891 44.16365399 475.45250156 88.28788885 476.340553 132.48069976 C476.4468064 137.74884118 476.55682919 143.01689757 476.66918945 148.28491211 C476.69148584 149.33325581 476.71378223 150.38159951 476.73675426 151.46171121 C477.05723752 166.16335193 477.58043968 180.84541419 478.26757701 195.53430299 C485.85578029 357.97556707 485.85578029 357.97556707 446.2745831 403.59335399 C414.3989676 438.242183 375.61625561 448.99457553 330.28125435 450.95898098 C304.65961841 451.92050453 279.07181782 450.63780067 253.49844724 449.12243766 C241.8432839 448.43929867 230.19400186 447.98156735 218.52319336 447.66918945 C217.69124412 447.64685796 216.85929488 447.62452646 216.00213506 447.60151825 C211.82476883 447.49051879 207.64731922 447.38312087 203.4698137 447.27750647 C169.27322371 446.40836878 135.16104774 444.85019056 101 443 C101 414.62 101 386.24 101 357 C195.05 357 289.1 357 386 357 C386 326.64 386 296.28 386 265 C377.36247559 265.45036621 368.72495117 265.90073242 359.82568359 266.36474609 C331.80490736 267.76143116 303.78378298 268.70829639 275.73693725 269.39161833 C271.34130213 269.49910846 266.94577178 269.61042686 262.55029297 269.72412109 C261.67566723 269.74667979 260.8010415 269.76923849 259.89991195 269.79248078 C247.66443176 270.11597726 235.45324333 270.64435596 223.23356588 271.34125401 C90.58616398 278.8989637 90.58616398 278.8989637 44.88433838 238.668396 C14.98851634 210.99095971 -6.2010544 178.77721937 -8.24885178 137.35988235 C-8.7352738 122.52848281 -7.6596724 107.83099304 -6.19443667 93.08230722 C-5.01238838 80.9667849 -4.58150869 68.81912931 -4.08644676 56.65988922 C-3.29637271 37.69966877 -1.58554166 18.94865676 0 0 Z " fill="#FFFFFF" transform="translate(715,1022)"/>
<path d="M0 0 C150.81 0 301.62 0 457 0 C457 28.71 457 57.42 457 87 C395.95 87 334.9 87 272 87 C272 204.48 272 321.96 272 443 C243.29 443 214.58 443 185 443 C185 325.52 185 208.04 185 87 C123.95 87 62.9 87 0 87 C0 58.29 0 29.58 0 0 Z " fill="#FFFFFF" transform="translate(1218,1022)"/>
</svg>
